<svg width="35" height="47" viewBox="0 0 35 47" fill="none" xmlns="http://www.w3.org/2000/svg">
<path d="M1.2 0.0986328C12.1 0.0986328 23 0.0986328 33.8 0.0986328C34.7 0.409542 35 1.135 35 2.06772C35 16.2659 35 30.5677 35 44.7659C35 46.1132 34.4 46.735 33.2 46.735C22.8 46.735 12.4 46.735 1.9 46.735C0.6 46.735 0 46.1132 0 44.7659C0 30.5677 0 16.2659 0 2.06772C0 1.135 0.3 0.409542 1.2 0.0986328Z" fill="#005AAA"/>
<path d="M23.1 29.9465C24.4 29.9465 25.7 29.9465 27 29.9465C27.9 29.9465 28.6 29.3247 28.6 28.3919C28.6 27.4592 28 26.8374 27 26.8374C24.4 26.8374 21.9 26.8374 19.3 26.8374C18.3 26.8374 17.7 27.4592 17.7 28.3919C17.7 29.3247 18.3 29.9465 19.4 29.9465C20.6 29.9465 21.8 29.9465 23.1 29.9465Z" fill="#FFD66B"/>
<path d="M23.1 17.7178C21.8 17.7178 20.6 17.7178 19.3 17.7178C19.1 17.7178 18.8 17.7178 18.6 17.8214C17.9 18.0287 17.5 18.7541 17.6 19.5832C17.7 20.4123 18.3 20.9305 19.2 20.9305C21.8 20.9305 24.3 20.9305 26.9 20.9305C27.9 20.9305 28.5 20.3087 28.6 19.376C28.6 18.4432 28 17.8214 26.9 17.8214C25.7 17.7178 24.4 17.7178 23.1 17.7178Z" fill="#FFD66B"/>
<path d="M23.1 11.6027C24.4 11.6027 25.7 11.6027 27 11.6027C27.9 11.6027 28.5 10.9809 28.6 10.0482C28.6 9.11547 28 8.49365 27 8.49365C24.4 8.49365 21.8 8.49365 19.1 8.49365C18.5 8.49365 18 8.70092 17.7 9.32274C17.1 10.3591 17.8 11.6027 19 11.6027C20.4 11.6027 21.8 11.6027 23.1 11.6027Z" fill="#FFD66B"/>
<path d="M23.1 36.0615C21.8 36.0615 20.5 36.0615 19.3 36.0615C18.5 36.0615 18 36.3724 17.8 36.9942C17.4 38.0306 18.1 39.067 19.3 39.1706C20.8 39.1706 22.3 39.1706 23.8 39.1706C24.9 39.1706 26 39.1706 27.1 39.1706C27.7 39.1706 28.2 38.9633 28.5 38.3415C29.1 37.3052 28.4 36.0615 27.1 36.0615C25.7 36.0615 24.4 36.0615 23.1 36.0615Z" fill="#FFD66B"/>
<path d="M9.6 12.4319C10 12.4319 10.3 12.3282 10.6 12.0173C11.7 10.8773 12.7 9.84096 13.8 8.70095C14.4 7.9755 14.4 7.14641 13.8 6.42095C13.2 5.79914 12.3 5.79914 11.6 6.42095C11.1 6.93914 10.6 7.45732 10.1 7.9755C9.5 8.59732 9.5 8.59732 9 8.07914C8.3 7.45732 7.5 7.45732 6.9 8.07914C6.3 8.70095 6.3 9.63368 6.9 10.2555C7.4 10.8773 8 11.3955 8.5 11.9137C8.8 12.3282 9.1 12.4319 9.6 12.4319Z" fill="#FFD66B"/>
<path d="M9.5 39.9988C9.9 39.9988 10.3 39.7915 10.6 39.4806C11.6 38.4442 12.7 37.3042 13.7 36.2679C14.4 35.5424 14.4 34.6097 13.7 33.9878C13.1 33.366 12.2 33.366 11.5 34.0915C11 34.6097 10.4 35.2315 9.9 35.7497C9.4 36.2679 9.4 36.2679 9 35.7497C8.3 35.0242 7.5 35.0242 6.8 35.646C6.2 36.2678 6.2 37.2006 6.8 37.926C7.3 38.4442 7.8 38.9624 8.3 39.4806C8.7 39.8951 9.1 39.9988 9.5 39.9988Z" fill="#FFD66B"/>
<path d="M7.9 16.8887C7.3 16.8887 6.8 17.1996 6.5 17.8214C6.2 18.4433 6.3 19.0651 6.8 19.4796C7.3 20.1014 7.8 20.6196 8.4 21.1378C9.1 21.8633 9.9 21.8633 10.6 21.1378C11.6 20.1014 12.7 18.9614 13.7 17.9251C14.4 17.1996 14.4 16.2669 13.7 15.6451C13.1 15.0233 12.2 15.0233 11.5 15.7487C10.9 16.3705 10.4 16.8887 9.8 17.5105C9.5 17.8214 9.3 17.9251 9 17.5105C8.8 17.096 8.4 16.7851 7.9 16.8887Z" fill="#FFD66B"/>
<path d="M9.5 30.7756C10 30.7756 10.3 30.5683 10.6 30.2574C11.6 29.2211 12.6 28.0811 13.7 27.0447C14.4 26.3193 14.4 25.3865 13.8 24.7647C13.2 24.1429 12.3 24.1429 11.6 24.8683C11.1 25.3865 10.6 25.9047 10.1 26.5265C9.6 27.0447 9.6 27.0447 9.1 26.5265C8.4 25.9047 7.6 25.9047 7 26.5265C6.4 27.1483 6.4 28.0811 7 28.8065C7.5 29.3247 8.1 29.9465 8.6 30.4647C8.8 30.672 9.1 30.7756 9.5 30.7756Z" fill="#FFD66B"/>
</svg>
