<svg width="21" height="15" viewBox="0 0 21 15" fill="none" xmlns="http://www.w3.org/2000/svg">
<path fill-rule="evenodd" clip-rule="evenodd" d="M4.48006 0.932832C6.44006 0.792832 8.68006 0.652832 10.5001 0.652832C12.3201 0.652832 14.5601 0.792832 16.5201 0.932832C18.7601 1.07283 20.0201 1.49283 20.3001 3.87283C20.4401 4.99283 20.5801 6.39283 20.5801 7.79283C20.5801 9.33283 20.4401 10.7328 20.3001 11.7128C20.0201 14.0928 18.7601 14.3728 16.5201 14.6528C14.5601 14.7928 12.3201 14.9328 10.5001 14.9328C8.68006 14.9328 6.44006 14.9328 4.48006 14.6528C2.24006 14.5128 0.980058 14.0928 0.700058 11.7128C0.560058 10.7328 0.560059 9.19283 0.560059 7.79283C0.560059 6.25283 0.700058 4.85283 0.700058 3.87283C0.980058 1.49283 2.24006 1.07283 4.48006 0.932832Z" fill="#FFD66B"/>
<path fill-rule="evenodd" clip-rule="evenodd" d="M8.54004 4.71289L13.72 7.79289L8.54004 10.8729V4.71289Z" fill="#005AAA"/>
</svg>
