<svg width="50" height="62" viewBox="0 0 50 62" fill="none" xmlns="http://www.w3.org/2000/svg">
<g opacity="0.1" filter="url(#filter0_d_277_179)">
<mask id="path-1-inside-1_277_179" fill="white">
<path d="M32 42.2557C32 49.8465 25.4954 56.2721 18.8009 52.6938V52.6938C14.74 50.5232 11.277 47.3846 8.71885 43.556C6.16065 39.7274 4.58616 35.3269 4.13483 30.7445C3.6835 26.162 4.36926 21.539 6.13138 17.2849C7.89349 13.0307 10.6776 9.27684 14.237 6.3557C17.7964 3.43455 22.0213 1.43632 26.5375 0.538009C31.0536 -0.360307 35.7216 -0.13098 40.128 1.20568V1.20568C47.3919 3.40917 47.4478 12.5522 42.0803 17.9197L37.799 22.201C34.086 25.914 32 30.95 32 36.201L32 42.2557Z"/>
</mask>
<path d="M32 42.2557C32 49.8465 25.4954 56.2721 18.8009 52.6938V52.6938C14.74 50.5232 11.277 47.3846 8.71885 43.556C6.16065 39.7274 4.58616 35.3269 4.13483 30.7445C3.6835 26.162 4.36926 21.539 6.13138 17.2849C7.89349 13.0307 10.6776 9.27684 14.237 6.3557C17.7964 3.43455 22.0213 1.43632 26.5375 0.538009C31.0536 -0.360307 35.7216 -0.13098 40.128 1.20568V1.20568C47.3919 3.40917 47.4478 12.5522 42.0803 17.9197L37.799 22.201C34.086 25.914 32 30.95 32 36.201L32 42.2557Z" fill="#005AAA"/>
<path d="M32 42.2557C32 49.8465 25.4954 56.2721 18.8009 52.6938V52.6938C14.74 50.5232 11.277 47.3846 8.71885 43.556C6.16065 39.7274 4.58616 35.3269 4.13483 30.7445C3.6835 26.162 4.36926 21.539 6.13138 17.2849C7.89349 13.0307 10.6776 9.27684 14.237 6.3557C17.7964 3.43455 22.0213 1.43632 26.5375 0.538009C31.0536 -0.360307 35.7216 -0.13098 40.128 1.20568V1.20568C47.3919 3.40917 47.4478 12.5522 42.0803 17.9197L37.799 22.201C34.086 25.914 32 30.95 32 36.201L32 42.2557Z" stroke="black" stroke-width="2" mask="url(#path-1-inside-1_277_179)"/>
</g>
<defs>
<filter id="filter0_d_277_179" x="0" y="0" width="49.871" height="61.7114" filterUnits="userSpaceOnUse" color-interpolation-filters="sRGB">
<feFlood flood-opacity="0" result="BackgroundImageFix"/>
<feColorMatrix in="SourceAlpha" type="matrix" values="0 0 0 0 0 0 0 0 0 0 0 0 0 0 0 0 0 0 127 0" result="hardAlpha"/>
<feOffset dy="4"/>
<feGaussianBlur stdDeviation="2"/>
<feComposite in2="hardAlpha" operator="out"/>
<feColorMatrix type="matrix" values="0 0 0 0 0 0 0 0 0 0 0 0 0 0 0 0 0 0 0.25 0"/>
<feBlend mode="normal" in2="BackgroundImageFix" result="effect1_dropShadow_277_179"/>
<feBlend mode="normal" in="SourceGraphic" in2="effect1_dropShadow_277_179" result="shape"/>
</filter>
</defs>
</svg>
