<svg width="60" height="62" viewBox="0 0 60 62" fill="none" xmlns="http://www.w3.org/2000/svg">
<g opacity="0.1" filter="url(#filter0_d_277_182)">
<mask id="path-1-inside-1_277_182" fill="white">
<path d="M32 42.2557C32 49.8465 25.4954 56.2721 18.8009 52.6938V52.6938C14.74 50.5232 11.277 47.3846 8.71885 43.556C6.16065 39.7274 4.58616 35.3269 4.13483 30.7445C3.6835 26.162 4.36926 21.539 6.13138 17.2849C7.89349 13.0307 10.6776 9.27684 14.237 6.3557C17.7964 3.43455 22.0213 1.43632 26.5375 0.538009C31.0536 -0.360307 35.7216 -0.13098 40.128 1.20568V1.20568C47.3919 3.40917 47.4478 12.5522 42.0803 17.9197L37.799 22.201C34.086 25.914 32 30.95 32 36.201L32 42.2557Z"/>
</mask>
<path d="M32 42.2557C32 49.8465 25.4954 56.2721 18.8009 52.6938V52.6938C14.74 50.5232 11.277 47.3846 8.71885 43.556C6.16065 39.7274 4.58616 35.3269 4.13483 30.7445C3.6835 26.162 4.36926 21.539 6.13138 17.2849C7.89349 13.0307 10.6776 9.27684 14.237 6.3557C17.7964 3.43455 22.0213 1.43632 26.5375 0.538009C31.0536 -0.360307 35.7216 -0.13098 40.128 1.20568V1.20568C47.3919 3.40917 47.4478 12.5522 42.0803 17.9197L37.799 22.201C34.086 25.914 32 30.95 32 36.201L32 42.2557Z" fill="#005AAA"/>
<path d="M32 42.2557C32 49.8465 25.4954 56.2721 18.8009 52.6938V52.6938C14.74 50.5232 11.277 47.3846 8.71885 43.556C6.16065 39.7274 4.58616 35.3269 4.13483 30.7445C3.6835 26.162 4.36926 21.539 6.13138 17.2849C7.89349 13.0307 10.6776 9.27684 14.237 6.3557C17.7964 3.43455 22.0213 1.43632 26.5375 0.538009C31.0536 -0.360307 35.7216 -0.13098 40.128 1.20568V1.20568C47.3919 3.40917 47.4478 12.5522 42.0803 17.9197L37.799 22.201C34.086 25.914 32 30.95 32 36.201L32 42.2557Z" stroke="black" stroke-width="2" mask="url(#path-1-inside-1_277_182)"/>
</g>
<path d="M45.3333 34.56V38.56C45.3348 38.9313 45.2588 39.2989 45.11 39.6391C44.9613 39.9793 44.7431 40.2847 44.4694 40.5358C44.1958 40.7868 43.8728 40.9779 43.521 41.0969C43.1692 41.2159 42.7965 41.2601 42.4267 41.2266C38.3238 40.7808 34.3827 39.3788 30.92 37.1333C27.6984 35.0862 24.9671 32.3549 22.92 29.1333C20.6666 25.6549 19.2643 21.6946 18.8267 17.5733C18.7934 17.2046 18.8372 16.833 18.9553 16.4821C19.0735 16.1313 19.2634 15.8089 19.513 15.5355C19.7626 15.262 20.0664 15.0436 20.4051 14.894C20.7437 14.7444 21.1098 14.667 21.48 14.6666H25.48C26.1271 14.6603 26.7544 14.8894 27.245 15.3113C27.7357 15.7333 28.0561 16.3192 28.1467 16.96C28.3155 18.2401 28.6286 19.4969 29.08 20.7066C29.2594 21.1839 29.2982 21.7025 29.1919 22.2011C29.0855 22.6998 28.8385 23.1574 28.48 23.52L26.7867 25.2133C28.6848 28.5514 31.4486 31.3152 34.7867 33.2133L36.48 31.52C36.8425 31.1615 37.3002 30.9144 37.7988 30.8081C38.2975 30.7017 38.8161 30.7406 39.2933 30.92C40.503 31.3714 41.7599 31.6845 43.04 31.8533C43.6877 31.9447 44.2792 32.2709 44.7021 32.77C45.1249 33.269 45.3496 33.9061 45.3333 34.56Z" fill="#005AAA"/>
<path d="M36.0667 18.6668C37.369 18.9209 38.5658 19.5578 39.5041 20.4961C40.4423 21.4343 41.0792 22.6312 41.3333 23.9335M36.0667 13.3335C38.7723 13.6341 41.2954 14.8457 43.2216 16.7695C45.1478 18.6933 46.3627 21.2148 46.6666 23.9202" stroke="#FFD66B" stroke-width="2" stroke-linecap="round" stroke-linejoin="round"/>
<defs>
<filter id="filter0_d_277_182" x="0" y="0" width="49.871" height="61.7114" filterUnits="userSpaceOnUse" color-interpolation-filters="sRGB">
<feFlood flood-opacity="0" result="BackgroundImageFix"/>
<feColorMatrix in="SourceAlpha" type="matrix" values="0 0 0 0 0 0 0 0 0 0 0 0 0 0 0 0 0 0 127 0" result="hardAlpha"/>
<feOffset dy="4"/>
<feGaussianBlur stdDeviation="2"/>
<feComposite in2="hardAlpha" operator="out"/>
<feColorMatrix type="matrix" values="0 0 0 0 0 0 0 0 0 0 0 0 0 0 0 0 0 0 0.25 0"/>
<feBlend mode="normal" in2="BackgroundImageFix" result="effect1_dropShadow_277_182"/>
<feBlend mode="normal" in="SourceGraphic" in2="effect1_dropShadow_277_182" result="shape"/>
</filter>
</defs>
</svg>
