<svg width="140" height="139" viewBox="0 0 140 139" fill="none" xmlns="http://www.w3.org/2000/svg">
<g filter="url(#filter0_dd_1008_468)">
<circle cx="69.9289" cy="49.5635" r="29.2711" fill="white"/>
</g>
<g opacity="0.1" clip-path="url(#clip0_1008_468)">
<path d="M82.8493 36.3572H57.0084C56.0628 36.3572 55.2933 37.1267 55.2933 38.0723V55.109C55.2933 56.0546 56.0628 56.8241 57.0084 56.8241H82.8493C83.7949 56.8241 84.5644 56.0546 84.5644 55.109V38.0723C84.5644 37.1267 83.7949 36.3572 82.8493 36.3572Z" fill="black"/>
<path d="M79.076 61.0547H74.4453V58.5392H65.4124V61.0547H60.7816C60.3083 61.0547 59.9241 61.4388 59.9241 61.9122C59.9241 62.3856 60.3083 62.7698 60.7816 62.7698H79.076C79.5494 62.7698 79.9336 62.3856 79.9336 61.9122C79.9336 61.4388 79.5494 61.0547 79.076 61.0547Z" fill="black"/>
</g>
<defs>
<filter id="filter0_dd_1008_468" x="0.657837" y="0.29248" width="138.542" height="138.542" filterUnits="userSpaceOnUse" color-interpolation-filters="sRGB">
<feFlood flood-opacity="0" result="BackgroundImageFix"/>
<feColorMatrix in="SourceAlpha" type="matrix" values="0 0 0 0 0 0 0 0 0 0 0 0 0 0 0 0 0 0 127 0" result="hardAlpha"/>
<feOffset dy="10"/>
<feGaussianBlur stdDeviation="5"/>
<feColorMatrix type="matrix" values="0 0 0 0 1 0 0 0 0 0.419608 0 0 0 0 0 0 0 0 0.05 0"/>
<feBlend mode="normal" in2="BackgroundImageFix" result="effect1_dropShadow_1008_468"/>
<feColorMatrix in="SourceAlpha" type="matrix" values="0 0 0 0 0 0 0 0 0 0 0 0 0 0 0 0 0 0 127 0" result="hardAlpha"/>
<feOffset dy="20"/>
<feGaussianBlur stdDeviation="20"/>
<feColorMatrix type="matrix" values="0 0 0 0 1 0 0 0 0 0.419608 0 0 0 0 0 0 0 0 0.13 0"/>
<feBlend mode="normal" in2="effect1_dropShadow_1008_468" result="effect2_dropShadow_1008_468"/>
<feBlend mode="normal" in="SourceGraphic" in2="effect2_dropShadow_1008_468" result="shape"/>
</filter>
<clipPath id="clip0_1008_468">
<rect width="29.2711" height="29.2711" fill="white" transform="translate(55.2933 34.928)"/>
</clipPath>
</defs>
</svg>
