<svg width="166" height="165" viewBox="0 0 166 165" fill="none" xmlns="http://www.w3.org/2000/svg">
<g filter="url(#filter0_dd_1008_460)">
<circle cx="83.1576" cy="62.5636" r="42.2711" fill="white"/>
</g>
<g opacity="0.1" clip-path="url(#clip0_1008_460)">
<path d="M102.723 57.888L99.567 57.2019C99.2926 56.3617 98.9526 55.5421 98.5513 54.7527L100.299 52.0349C100.611 51.5493 100.542 50.9117 100.134 50.5038L95.2173 45.5871C94.8094 45.1792 94.1719 45.1106 93.6863 45.4226L90.9685 47.1698C90.179 46.7685 89.3594 46.4286 88.5192 46.1541L87.8331 42.9981C87.7106 42.4342 87.2112 42.0319 86.6341 42.0319H79.681C79.1039 42.0319 78.6046 42.4342 78.4821 42.9981L77.796 46.1541C76.9557 46.4286 76.1362 46.7685 75.3467 47.1698L72.6289 45.4226C72.1433 45.1106 71.5058 45.1792 71.0979 45.5871L66.1811 50.5038C65.7732 50.9117 65.7046 51.5493 66.0166 52.0349L67.7638 54.7527C67.3625 55.5421 67.0226 56.3617 66.7482 57.2019L63.5921 57.888C63.0282 58.0108 62.6259 58.5099 62.6259 59.087V66.0401C62.6259 66.6172 63.0282 67.1163 63.5921 67.2391L66.7482 67.9252C67.0226 68.7654 67.3625 69.585 67.7638 70.3745L66.0166 73.0922C65.7046 73.5778 65.7732 74.2154 66.1811 74.6233L71.0979 79.54C71.5058 79.9479 72.1433 80.0165 72.6289 79.7045L75.3467 77.9573C76.1362 78.3586 76.9557 78.6985 77.796 78.973L78.4821 82.129C78.6046 82.693 79.1039 83.0952 79.681 83.0952H86.6341C87.2112 83.0952 87.7106 82.693 87.8331 82.129L88.5192 78.973C89.3594 78.6985 90.179 78.3586 90.9685 77.9573L93.6863 79.7045C94.1719 80.0165 94.8094 79.9482 95.2173 79.54L100.134 74.6233C100.542 74.2154 100.611 73.5778 100.299 73.0922L98.5513 70.3745C98.9526 69.585 99.2926 68.7654 99.567 67.9252L102.723 67.2391C103.287 67.1163 103.689 66.6172 103.689 66.0401V59.087C103.689 58.5099 103.287 58.0108 102.723 57.888ZM90.5195 62.5636C90.5195 66.6228 87.2169 69.9255 83.1576 69.9255C79.0983 69.9255 75.7956 66.6228 75.7956 62.5636C75.7956 58.5043 79.0983 55.2016 83.1576 55.2016C87.2169 55.2016 90.5195 58.5043 90.5195 62.5636Z" fill="black"/>
</g>
<defs>
<filter id="filter0_dd_1008_460" x="0.886536" y="0.29248" width="164.542" height="164.542" filterUnits="userSpaceOnUse" color-interpolation-filters="sRGB">
<feFlood flood-opacity="0" result="BackgroundImageFix"/>
<feColorMatrix in="SourceAlpha" type="matrix" values="0 0 0 0 0 0 0 0 0 0 0 0 0 0 0 0 0 0 127 0" result="hardAlpha"/>
<feOffset dy="10"/>
<feGaussianBlur stdDeviation="5"/>
<feColorMatrix type="matrix" values="0 0 0 0 1 0 0 0 0 0.419608 0 0 0 0 0 0 0 0 0.05 0"/>
<feBlend mode="normal" in2="BackgroundImageFix" result="effect1_dropShadow_1008_460"/>
<feColorMatrix in="SourceAlpha" type="matrix" values="0 0 0 0 0 0 0 0 0 0 0 0 0 0 0 0 0 0 127 0" result="hardAlpha"/>
<feOffset dy="20"/>
<feGaussianBlur stdDeviation="20"/>
<feColorMatrix type="matrix" values="0 0 0 0 1 0 0 0 0 0.419608 0 0 0 0 0 0 0 0 0.13 0"/>
<feBlend mode="normal" in2="effect1_dropShadow_1008_460" result="effect2_dropShadow_1008_460"/>
<feBlend mode="normal" in="SourceGraphic" in2="effect2_dropShadow_1008_460" result="shape"/>
</filter>
<clipPath id="clip0_1008_460">
<rect width="41.0633" height="41.0633" fill="white" transform="translate(62.6259 42.0319)"/>
</clipPath>
</defs>
</svg>
