<svg width="57" height="57" viewBox="0 0 57 57" fill="none" xmlns="http://www.w3.org/2000/svg">
<path d="M2.45004 0.29248C1.09545 0.29248 0.00012207 1.38781 0.00012207 2.7424C0.00012207 4.09698 1.09545 5.19231 2.45004 5.19231C3.80462 5.19231 4.89995 4.09698 4.89995 2.7424C4.89995 1.38781 3.80462 0.29248 2.45004 0.29248Z" fill="#005AAA"/>
<path d="M19.6156 0.29248C18.261 0.29248 17.1656 1.38781 17.1656 2.7424C17.1656 4.09698 18.261 5.19231 19.6156 5.19231C20.9701 5.19231 22.0655 4.09698 22.0655 2.7424C22.0655 1.38781 20.9701 0.29248 19.6156 0.29248Z" fill="#005AAA"/>
<path d="M36.7812 0.29248C35.4266 0.29248 34.3313 1.38781 34.3313 2.7424C34.3313 4.09698 35.4266 5.19231 36.7812 5.19231C38.1358 5.19231 39.2311 4.09698 39.2311 2.7424C39.2311 1.38781 38.1358 0.29248 36.7812 0.29248Z" fill="#005AAA"/>
<path d="M53.9469 5.19866C55.3014 5.19866 56.3968 4.10333 56.3968 2.74874C56.3968 1.39416 55.3014 0.298828 53.9469 0.298828C52.5923 0.298828 51.4969 1.39416 51.4969 2.74874C51.4969 4.10333 52.5923 5.19866 53.9469 5.19866Z" fill="#005AAA"/>
<path d="M2.44992 17.4551C1.09533 17.4551 0 18.5504 0 19.905C0 21.2596 1.09533 22.3549 2.44992 22.3549C3.8045 22.3549 4.89983 21.2596 4.89983 19.905C4.90631 18.5504 3.8045 17.4551 2.44992 17.4551Z" fill="#005AAA"/>
<path d="M19.6156 17.4548C18.261 17.4548 17.1656 18.5502 17.1656 19.9047C17.1656 21.2593 18.261 22.3547 19.6156 22.3547C20.9701 22.3547 22.0655 21.2593 22.0655 19.9047C22.0655 18.5502 20.9701 17.4548 19.6156 17.4548Z" fill="#005AAA"/>
<path d="M36.7812 17.4548C35.4266 17.4548 34.3313 18.5502 34.3313 19.9047C34.3313 21.2593 35.4266 22.3547 36.7812 22.3547C38.1358 22.3547 39.2311 21.2593 39.2311 19.9047C39.2311 18.5502 38.1358 17.4548 36.7812 17.4548Z" fill="#005AAA"/>
<path d="M53.9469 17.4548C52.5923 17.4548 51.4969 18.5502 51.4969 19.9047C51.4969 21.2593 52.5923 22.3547 53.9469 22.3547C55.3014 22.3547 56.3968 21.2593 56.3968 19.9047C56.3968 18.5502 55.3014 17.4548 53.9469 17.4548Z" fill="#005AAA"/>
<path d="M2.44992 34.6172C1.09533 34.6172 0 35.7125 0 37.0671C0 38.4217 1.09533 39.517 2.44992 39.517C3.8045 39.517 4.89983 38.4217 4.89983 37.0671C4.90631 35.7125 3.8045 34.6172 2.44992 34.6172Z" fill="#005AAA"/>
<path d="M19.6156 34.6172C18.261 34.6172 17.1656 35.7125 17.1656 37.0671C17.1656 38.4217 18.261 39.517 19.6156 39.517C20.9701 39.517 22.0655 38.4217 22.0655 37.0671C22.0655 35.7125 20.9701 34.6172 19.6156 34.6172Z" fill="#005AAA"/>
<path d="M36.7812 34.6172C35.4266 34.6172 34.3313 35.7125 34.3313 37.0671C34.3313 38.4217 35.4266 39.517 36.7812 39.517C38.1358 39.517 39.2311 38.4217 39.2311 37.0671C39.2311 35.7125 38.1358 34.6172 36.7812 34.6172Z" fill="#005AAA"/>
<path d="M53.9469 34.6172C52.5923 34.6172 51.4969 35.7125 51.4969 37.0671C51.4969 38.4217 52.5923 39.517 53.9469 39.517C55.3014 39.517 56.3968 38.4217 56.3968 37.0671C56.3968 35.7125 55.3014 34.6172 53.9469 34.6172Z" fill="#005AAA"/>
<path d="M2.44992 51.7732C1.09533 51.7732 0 52.8685 0 54.2231C0 55.5777 1.09533 56.673 2.44992 56.673C3.8045 56.673 4.89983 55.5777 4.89983 54.2231C4.90631 52.875 3.8045 51.7732 2.44992 51.7732Z" fill="#005AAA"/>
<path d="M19.6156 51.7732C18.261 51.7732 17.1656 52.8685 17.1656 54.2231C17.1656 55.5777 18.261 56.673 19.6156 56.673C20.9701 56.673 22.0655 55.5777 22.0655 54.2231C22.0655 52.875 20.9701 51.7732 19.6156 51.7732Z" fill="#005AAA"/>
<path d="M36.7812 51.7732C35.4266 51.7732 34.3313 52.8685 34.3313 54.2231C34.3313 55.5777 35.4266 56.673 36.7812 56.673C38.1358 56.673 39.2311 55.5777 39.2311 54.2231C39.2311 52.875 38.1358 51.7732 36.7812 51.7732Z" fill="#005AAA"/>
<path d="M53.9469 51.7732C52.5923 51.7732 51.4969 52.8685 51.4969 54.2231C51.4969 55.5777 52.5923 56.673 53.9469 56.673C55.3014 56.673 56.3968 55.5777 56.3968 54.2231C56.3968 52.875 55.3014 51.7732 53.9469 51.7732Z" fill="#005AAA"/>
</svg>
