<svg width="172" height="173" viewBox="0 0 172 173" fill="none" xmlns="http://www.w3.org/2000/svg">
<g filter="url(#filter0_dd_12_663)">
<circle cx="86" cy="66.318" r="46" fill="white"/>
</g>
<g clip-path="url(#clip0_12_663)">
<path d="M66.8167 80.4841C65.6491 80.4841 64.8635 81.4007 64.8635 82.5792C64.8635 83.7577 65.6491 84.6743 66.8167 84.6743C67.9843 84.6743 68.7699 83.7577 68.7699 82.5792C68.759 81.4007 67.9734 80.4841 66.8167 80.4841ZM66.5548 79.1856C67.4932 79.1856 68.2789 79.6657 68.6499 80.1895V79.3165H70.0903V85.8528H68.9773C68.8905 85.8526 68.8074 85.818 68.7461 85.7566C68.6847 85.6953 68.6502 85.6122 68.6499 85.5255V84.9799C68.2789 85.5036 67.5042 85.9838 66.5548 85.9838C64.7652 85.9838 63.4012 84.4561 63.4012 82.5901C63.4012 80.7242 64.7543 79.1856 66.5548 79.1856ZM71.7271 79.3165H73.1675V80.2004C73.5603 79.5457 74.3023 79.1856 75.1535 79.1856C76.6702 79.1856 77.6523 80.255 77.6523 81.9136V85.8528H76.5502C76.4634 85.8526 76.3803 85.818 76.319 85.7566C76.2577 85.6953 76.2231 85.6122 76.2228 85.5255V82.1537C76.2228 81.117 75.6991 80.495 74.8588 80.495C73.9095 80.495 73.1675 81.237 73.1675 82.6338V85.8528H72.0654C71.9786 85.8526 71.8955 85.818 71.8342 85.7566C71.7728 85.6953 71.7383 85.6122 71.738 85.5255L71.7271 79.3165ZM82.1917 80.4841C81.0241 80.4841 80.2384 81.4007 80.2384 82.5792C80.2384 83.7577 81.0241 84.6743 82.1917 84.6743C83.3593 84.6743 84.1449 83.7577 84.1449 82.5792C84.1449 81.4007 83.3593 80.4841 82.1917 80.4841ZM81.9298 79.1856C82.8682 79.1856 83.6539 79.6657 84.0249 80.1895V76.0429H85.4653V85.8528H84.3632C84.2764 85.8526 84.1933 85.818 84.132 85.7566C84.0706 85.6953 84.0361 85.6122 84.0358 85.5255V84.9799C83.6648 85.5036 82.89 85.9838 81.9407 85.9838C80.1511 85.9838 78.7871 84.4561 78.7871 82.5901C78.7871 80.7242 80.1402 79.1856 81.9298 79.1856ZM87.1021 79.3165H88.5425V80.4841C88.669 80.1268 88.9022 79.8169 89.2105 79.5963C89.5189 79.3758 89.8875 79.2553 90.2666 79.2511C90.4535 79.2476 90.6403 79.2659 90.8231 79.3056V80.7787C90.5908 80.7009 90.3478 80.6604 90.1029 80.6587C89.2845 80.6587 88.5315 81.3571 88.5315 82.6556V85.8419H87.4294C87.3427 85.8416 87.2596 85.8071 87.1982 85.7457C87.1369 85.6844 87.1023 85.6013 87.1021 85.5145V79.3165ZM94.6968 84.6416C95.8426 84.6416 96.661 83.7359 96.661 82.5792C96.661 81.4116 95.8535 80.5169 94.6968 80.5169C93.5292 80.5169 92.7218 81.4225 92.7218 82.5792C92.7327 83.7468 93.5292 84.6416 94.6968 84.6416ZM94.6968 85.9838C94.0255 85.9784 93.3707 85.7743 92.8152 85.3973C92.2597 85.0203 91.8282 84.4873 91.5753 83.8654C91.3223 83.2435 91.2592 82.5606 91.3939 81.9029C91.5285 81.2451 91.855 80.642 92.332 80.1696C92.809 79.6971 93.4152 79.3765 94.0742 79.2482C94.7332 79.1198 95.4154 79.1895 96.0349 79.4484C96.6543 79.7073 97.1832 80.1439 97.5549 80.703C97.9265 81.2621 98.1243 81.9188 98.1232 82.5901C98.1254 83.0392 98.0381 83.4842 97.8663 83.8991C97.6945 84.314 97.4417 84.6904 97.1226 85.0064C96.8036 85.3224 96.4247 85.5716 96.0082 85.7395C95.5916 85.9073 95.1458 85.9903 94.6968 85.9838ZM99.2908 79.3165H100.731V85.8528H99.629C99.5423 85.8526 99.4592 85.818 99.3978 85.7566C99.3365 85.6953 99.3019 85.6122 99.3017 85.5255L99.2908 79.3165ZM100.011 77.8871C99.7541 77.8846 99.5085 77.7816 99.3269 77.5999C99.1453 77.4183 99.0422 77.1727 99.0398 76.9159C99.0449 76.662 99.1496 76.4202 99.3312 76.2426C99.5129 76.0651 99.757 75.9659 100.011 75.9666C100.266 75.9666 100.51 76.0677 100.69 76.2478C100.87 76.4279 100.971 76.6721 100.971 76.9268C100.971 77.1815 100.87 77.4257 100.69 77.6058C100.51 77.7859 100.266 77.8871 100.011 77.8871ZM105.325 80.4841C104.158 80.4841 103.372 81.4007 103.372 82.5792C103.372 83.7577 104.158 84.6743 105.325 84.6743C106.493 84.6743 107.278 83.7577 107.278 82.5792C107.257 81.4007 106.493 80.4841 105.325 80.4841ZM105.063 79.1856C106.002 79.1856 106.787 79.6657 107.158 80.1895V76.0429H108.599V85.8528H107.497C107.41 85.8526 107.327 85.818 107.265 85.7566C107.204 85.6953 107.169 85.6122 107.169 85.5255V84.9799C106.798 85.5036 106.023 85.9838 105.074 85.9838C103.285 85.9838 101.921 84.4561 101.921 82.5901C101.921 80.7242 103.274 79.1856 105.063 79.1856Z" fill="black"/>
<path d="M97.0756 54.1098L100.84 47.5954C100.941 47.4161 100.968 47.2044 100.913 47.0059C100.859 46.8074 100.729 46.6382 100.551 46.5349C100.374 46.4316 100.162 46.4025 99.9629 46.4539C99.7637 46.5054 99.5928 46.6332 99.4872 46.8097L95.6789 53.4006C92.639 52.0339 89.3439 51.3273 86.0109 51.3273C82.6779 51.3273 79.3828 52.0339 76.3429 53.4006L72.5346 46.8097C72.4289 46.6332 72.258 46.5054 72.0589 46.4539C71.8597 46.4025 71.6482 46.4316 71.4703 46.5349C71.2924 46.6382 71.1624 46.8074 71.1083 47.0059C71.0543 47.2044 71.0805 47.4161 71.1815 47.5954L74.9461 54.1098C68.4535 57.6235 64.0451 64.1598 63.4012 71.8745H108.577C107.933 64.1598 103.514 57.6235 97.0756 54.1098ZM75.6008 65.4365C75.2296 65.4365 74.8668 65.3264 74.5581 65.1202C74.2495 64.9139 74.0089 64.6208 73.8668 64.2779C73.7248 63.9349 73.6876 63.5575 73.76 63.1935C73.8325 62.8294 74.0112 62.495 74.2737 62.2325C74.5362 61.97 74.8706 61.7912 75.2347 61.7188C75.5988 61.6464 75.9761 61.6836 76.3191 61.8256C76.662 61.9677 76.9552 62.2082 77.1614 62.5169C77.3676 62.8255 77.4777 63.1884 77.4777 63.5596C77.4777 64.0574 77.28 64.5348 76.928 64.8868C76.576 65.2387 76.0986 65.4365 75.6008 65.4365ZM96.3991 65.4365C96.0279 65.4365 95.665 65.3264 95.3564 65.1202C95.0477 64.9139 94.8072 64.6208 94.6651 64.2779C94.523 63.9349 94.4859 63.5575 94.5583 63.1935C94.6307 62.8294 94.8095 62.495 95.0719 62.2325C95.3344 61.97 95.6689 61.7912 96.0329 61.7188C96.397 61.6464 96.7744 61.6836 97.1173 61.8256C97.4603 61.9677 97.7534 62.2082 97.9596 62.5169C98.1659 62.8255 98.276 63.1884 98.276 63.5596C98.276 64.0574 98.0782 64.5348 97.7262 64.8868C97.3743 65.2387 96.8969 65.4365 96.3991 65.4365Z" fill="#3DDC84"/>
</g>
<defs>
<filter id="filter0_dd_12_663" x="0" y="0.317993" width="172" height="172" filterUnits="userSpaceOnUse" color-interpolation-filters="sRGB">
<feFlood flood-opacity="0" result="BackgroundImageFix"/>
<feColorMatrix in="SourceAlpha" type="matrix" values="0 0 0 0 0 0 0 0 0 0 0 0 0 0 0 0 0 0 127 0" result="hardAlpha"/>
<feOffset dy="10"/>
<feGaussianBlur stdDeviation="5"/>
<feColorMatrix type="matrix" values="0 0 0 0 1 0 0 0 0 0.419608 0 0 0 0 0 0 0 0 0.05 0"/>
<feBlend mode="normal" in2="BackgroundImageFix" result="effect1_dropShadow_12_663"/>
<feColorMatrix in="SourceAlpha" type="matrix" values="0 0 0 0 0 0 0 0 0 0 0 0 0 0 0 0 0 0 127 0" result="hardAlpha"/>
<feOffset dy="20"/>
<feGaussianBlur stdDeviation="20"/>
<feColorMatrix type="matrix" values="0 0 0 0 1 0 0 0 0 0.419608 0 0 0 0 0 0 0 0 0.13 0"/>
<feBlend mode="normal" in2="effect1_dropShadow_12_663" result="effect2_dropShadow_12_663"/>
<feBlend mode="normal" in="SourceGraphic" in2="effect2_dropShadow_12_663" result="shape"/>
</filter>
<clipPath id="clip0_12_663">
<rect width="49.3827" height="40" fill="white" transform="translate(61.3086 46.318)"/>
</clipPath>
</defs>
</svg>
