<svg width="96" height="15" viewBox="0 0 96 15" fill="none" xmlns="http://www.w3.org/2000/svg">
<path d="M10.3417 6.01609L1.61088 0.459167C0.913529 0.0129394 0 0.514938 0 1.34464V13.2464C0 14.104 0.969322 14.592 1.6597 14.09L10.3906 7.74522C10.9973 7.30597 10.9694 6.41352 10.3417 6.01609Z" fill="#FFD66B"/>
<path d="M31.4937 6.01609L22.7629 0.459167C22.0655 0.0129394 21.152 0.514938 21.152 1.34464V13.2464C21.152 14.104 22.1213 14.592 22.8117 14.09L31.5425 7.74522C32.1422 7.30597 32.1143 6.41352 31.4937 6.01609Z" fill="#FFD66B"/>
<path d="M52.6428 6.01609L43.9119 0.459167C43.2146 0.0129394 42.301 0.514938 42.301 1.34464V13.2464C42.301 14.104 43.2703 14.592 43.9607 14.09L52.6916 7.74522C53.2913 7.30597 53.2634 6.41352 52.6428 6.01609Z" fill="#FFD66B"/>
<path d="M73.7939 6.01609L65.063 0.459167C64.3657 0.0129394 63.4521 0.514938 63.4521 1.34464V13.2464C63.4521 14.104 64.4214 14.592 65.1118 14.09L73.8427 7.74522C74.4424 7.30597 74.4145 6.41352 73.7939 6.01609Z" fill="#FFD66B"/>
<path d="M94.9453 6.01609L86.2144 0.459167C85.517 0.0129394 84.6035 0.514938 84.6035 1.34464V13.2464C84.6035 14.104 85.5728 14.592 86.2632 14.09L94.9941 7.74522C95.5938 7.30597 95.5659 6.41352 94.9453 6.01609Z" fill="#FFD66B"/>
</svg>
